<svg id="Layer_1" data-name="Layer 1" xmlns="http://www.w3.org/2000/svg" viewBox="0 0 85 111.66"><defs><style>.cls-1{fill:#a8d9ff;}.cls-1,.cls-2{stroke:#005fbf;}.cls-1,.cls-2,.cls-3{stroke-linejoin:round;stroke-width:5px;}.cls-2{fill:#4fd3ff;}.cls-3{fill:#fff;stroke:#005ebc;}</style></defs><title>vectorpaint3</title><rect id="svg_1" data-name="svg 1" class="cls-1" x="2.5" y="13.16" width="80" height="96" rx="8" ry="8"/><path id="svg_14" data-name="svg 14" class="cls-2" d="M43.8,67.26H97.06" transform="translate(-27.81 -12.8)"/><path id="svg_6" data-name="svg 6" class="cls-3" d="M63,15.3H79.53a11,11,0,0,1,11,11h0a11,11,0,0,1-11,11H63a11,11,0,0,1-11-11h0A11,11,0,0,1,63,15.3Z" transform="translate(-27.81 -12.8)"/><polygon id="svg_8" data-name="svg 8" class="cls-2" points="57.57 21.73 58.57 21.73 58.57 21.73 57.57 21.73"/><path id="svg_11" data-name="svg 11" class="cls-2" d="M44,51.22H97.25" transform="translate(-27.81 -12.8)"/><path id="svg_15" data-name="svg 15" class="cls-2" d="M43.88,84.24H97.13" transform="translate(-27.81 -12.8)"/><path id="svg_16" data-name="svg 16" class="cls-2" d="M43.76,100.1H70.39" transform="translate(-27.81 -12.8)"/></svg>